<?xml version="1.0" encoding="UTF-8"?>
<svg id="Layer_2" data-name="Layer 2" xmlns="http://www.w3.org/2000/svg" viewBox="0 0 251.49 78.44">
  <defs>
    <style>
      .cls-1 {
        fill: none;
      }

      .cls-2 {
        fill: #ca8342;
      }
    </style>
  </defs>
  <g id="Layer_1-2" data-name="Layer 1">
    <g>
      <path class="cls-2" d="M188.75,40.45c-1.78,.19-4.59,1.2-6.43,3.55,2.91-1.32,5.15-2.58,6.43-3.55M27.98,65.63c-3.9,0-10.37-.58-11.27-5.32-.9-4.74,5.28-10.89,12.4-16.12-14.18,1.16-23.03-.31-26.91-4.42-1.37-1.45-2.82-4.01-1.93-7.93C3.27,18.63,38.88,4.54,61.11,1.01c10.22-1.62,23.26-2.09,27.42,4.88,2.75,4.61,.89,11.19-5.51,19.57-.79,1.03-2.27,1.23-3.3,.44-1.03-.79-1.23-2.27-.44-3.3,4.98-6.51,6.83-11.59,5.21-14.3-2.13-3.57-10.59-4.55-22.64-2.64C36.73,9.65,6.9,23.89,4.87,32.88c-.46,2.03,.16,3.02,.76,3.66,1.65,1.76,8.03,5.21,32.09,1.96,4.29-2.57,8-4.43,9.61-5,4.9-1.73,7.11-1.88,8.45-.59,.74,.71,1.01,1.79,.69,2.8-.83,2.67-6.81,5.69-11.2,6.42-2.09,.34-4.1,.65-6.03,.92-2.42,1.5-4.98,3.22-7.41,5.03-8.76,6.53-10.68,10.28-10.48,11.36,.09,.45,1.83,1.69,8.48,1.45,15.67-.56,32.15-8.96,45.4-15.72,11.46-5.85,19.03-9.71,23.38-7.21,.15,.09,.3,.2,.43,.32,.86,.8,1.33,1.86,1.38,3.08,.04,1.11-.3,2.27-.85,3.4,.17-.11,.33-.22,.46-.32,.12-.09,12.53-8.62,17.78-7.48,1.1,.24,1.98,.88,2.49,1.79,.01,.02,.02,.04,.04,.07,.73,1.42,.37,3.05-.71,5.23,3.34-2.01,6.95-4.09,9.1-5.08,4.68-2.15,7.66-2.4,9.35-.79,.68,.64,1.65,2.12,.6,4.76-.67,1.68-1.67,4.14-2.52,6.23,2.01-.69,5.11-2.01,9.71-4.53,1.13-.62,2.36-1.41,3.68-2.24,1.27-.81,2.62-1.67,4.07-2.5,1.46-1.08,3.12-2,4.76-2.72,2.09-.91,3.41-.95,4.7-.98,.23,0,.45-.01,.67-.02,.35-.04,.71-.07,1.07-.09,1.27-.06,2.36,.87,2.48,2.14,.11,1.26-.79,2.39-2.05,2.55-.4,.05-.76,.08-1.09,.1-2.71,.34-5.33,1.51-7.82,2.9-1.95,1.46-3.2,3.07-2.75,4.21,.03,.07,.02,.03,.03,.06,.62,1.29,3.64,3.27,10.79,1.8,4.3-.88,8.46-2.12,12.13-3.46,.11-1.74,.79-3.54,2.01-5.14,3.87-5.08,11.3-6.75,14.43-4.5,1.46,1.04,2.25,3.11,.73,5.38-1.37,2.04-5.62,4.59-11.1,6.93,1.32,.7,3.7,1.01,7.36,.24,6.27-1.31,10.52-3.97,13.93-6.11,2.68-1.68,4.81-3.01,7.05-3.01,.04,0,.08,0,.11,0,1.34,.03,2.48,.63,3.21,1.69,.19,.27,.34,.57,.47,.89,.12-.18,.25-.36,.38-.54,5.64-7.98,7.45-9.53,9.72-8.32,1.8,.96,1.76,3.03,1.72,4.85-.02,.98-.06,2.81,.37,3.25,.09,.09,.38,.15,.74,.15h21.49c1.3,0,2.36,1.05,2.36,2.35s-1.05,2.35-2.36,2.35h-21.49c-1.71,0-3.09-.53-4.1-1.57-1.18-1.21-1.57-2.8-1.68-4.33-2.32,3-5.62,7.79-8.39,12.09-.65,1.01-1.95,1.36-3.02,.84-1.07-.53-1.58-1.78-1.18-2.9,.79-2.21,1.28-4.85,1.18-6.04-.96,.27-2.48,1.22-4.07,2.22-3.54,2.21-8.38,5.24-15.47,6.73-8.28,1.74-11.76-.98-13.15-2.97-3.97,1.43-8.27,2.66-12.42,3.52-12.7,2.6-15.78-3.83-16.14-4.72h0c-.18-.45-.31-.91-.38-1.35-.24,.13-.47,.27-.7,.4-11.2,6.14-15.2,6.16-16.59,5.63-.59-.23-1.07-.68-1.32-1.26-.25-.58-.26-1.24-.02-1.83,0,0,2.34-5.7,3.77-9.27-.75,.19-1.83,.55-3.28,1.22-4.45,2.04-16.37,9.6-16.49,9.68-.89,.57-2.05,.47-2.84-.24-.79-.71-1-1.85-.53-2.8,.57-1.14,1.37-2.45,2.22-3.85,.75-1.23,1.86-3.05,2.48-4.34-3.18,.81-10.02,4.53-12.7,6.52-2.66,1.98-10.01,5.14-10.84,5.49-1.02,.44-2.2,.1-2.84-.8-.64-.91-.56-2.14,.19-2.95,0,0,2.14-2.34,3.25-3.52,1.83-1.95,2.86-3.72,3.08-4.57-2.92-.35-11.39,3.97-18.3,7.5-12.94,6.6-30.65,15.64-47.37,16.23-.51,.02-1.2,.04-2,.04"/>
      <path d="M72.43,78.32c-.04-2.27-.2-4.49-.51-6.77h-1.37l-1.78,5.32h-.02l-1.77-5.32h-1.38c-.32,2.24-.49,4.57-.52,6.77h.9c.03-1.96,.15-3.91,.34-5.7h.02l1.91,5.7h.89l1.93-5.7h.01c.24,1.81,.34,3.73,.38,5.7h.97Zm9.6,0c-.72-2.22-1.53-4.51-2.47-6.77h-1.07c-.87,2.13-1.67,4.37-2.41,6.77h.98c.16-.56,.36-1.16,.55-1.76h2.79c.18,.58,.37,1.19,.53,1.76h1.09Zm-1.88-2.51h-2.33c.36-1.08,.76-2.17,1.15-3.26v-.02c.42,1.11,.82,2.21,1.17,3.28m10.12,2.51l-1.81-3.17c.8-.24,1.42-.82,1.42-1.81,0-1.1-.79-1.78-2.24-1.78h-1.86v6.77h.95v-2.98h.78l1.63,2.98h1.14Zm-1.42-4.89c0,.65-.43,1.14-1.37,1.14h-.77v-2.25h.81c.99,0,1.32,.53,1.32,1.1m12.6,4.89c-.04-2.27-.19-4.49-.5-6.77h-1.37l-1.78,5.32h-.02l-1.77-5.32h-1.38c-.32,2.24-.5,4.57-.52,6.77h.9c.03-1.96,.15-3.91,.34-5.7h.02l1.91,5.7h.89l1.93-5.7h0c.24,1.81,.34,3.73,.38,5.7h.97Zm10.32-3.45c0-2.07-1.1-3.43-3.17-3.43s-3.23,1.44-3.23,3.56,1.04,3.44,3.16,3.44,3.24-1.42,3.24-3.57m-1.02,.12c0,1.41-.53,2.63-2.12,2.63-1.69,0-2.24-1.15-2.24-2.75,0-1.41,.55-2.62,2.11-2.62,1.68,0,2.25,1.18,2.25,2.74m14.39-.15c0-2.04-1.15-3.29-3.28-3.29h-2.13v6.77h2.01c2.15,0,3.4-1.17,3.4-3.48m-1.01,.05c0,1.79-.78,2.65-2.34,2.65h-1.11v-5.2h1.12c1.64,0,2.33,1.09,2.33,2.55m6.18-3.06c0-.35-.26-.6-.62-.6s-.61,.25-.61,.6,.26,.61,.61,.61,.62-.25,.62-.61m-.12,6.49v-4.94h-1.75v.7h.84v4.25h.91Zm12.8-.3l-.25-.76c-.42,.18-.9,.32-1.41,.32-1.38,0-2.26-.89-2.26-2.65,0-1.57,.81-2.65,2.1-2.65,.56,0,1,.1,1.48,.31l.31-.76c-.61-.28-1.13-.37-1.77-.37-1.88,0-3.14,1.35-3.14,3.56s1.23,3.38,3.15,3.38c.62,0,1.25-.15,1.79-.39m7.5,.3v-.79h-2.81v-2.34h2.41v-.78h-2.41v-2.07h2.77v-.79h-3.72v6.77h3.76Zm8.64,0l-1.81-3.17c.79-.24,1.41-.82,1.41-1.81,0-1.1-.78-1.78-2.24-1.78h-1.86v6.77h.95v-2.98h.78l1.63,2.98h1.14Zm-1.41-4.89c0,.65-.43,1.14-1.37,1.14h-.77v-2.25h.81c.99,0,1.32,.53,1.32,1.1m10.43,4.89c-.72-2.22-1.53-4.51-2.47-6.77h-1.07c-.87,2.13-1.67,4.37-2.41,6.77h.98c.16-.56,.36-1.16,.55-1.76h2.79c.18,.58,.37,1.19,.53,1.76h1.1Zm-1.88-2.51h-2.33c.36-1.08,.76-2.17,1.16-3.26v-.02c.42,1.11,.81,2.21,1.17,3.28m12.89,2.51c-.04-2.27-.19-4.49-.5-6.77h-1.37l-1.78,5.32h-.02l-1.77-5.32h-1.38c-.32,2.24-.5,4.57-.52,6.77h.9c.03-1.96,.15-3.91,.34-5.7h.02l1.91,5.7h.89l1.93-5.7h.01c.24,1.81,.34,3.73,.38,5.7h.97Zm5.34-6.77h-.95v6.77h.95v-6.77Zm8.97,6.47l-.25-.76c-.42,.18-.9,.32-1.42,.32-1.38,0-2.26-.89-2.26-2.65,0-1.57,.82-2.65,2.1-2.65,.56,0,1,.1,1.48,.31l.31-.76c-.61-.28-1.13-.37-1.77-.37-1.88,0-3.14,1.35-3.14,3.56s1.23,3.38,3.15,3.38c.62,0,1.25-.15,1.79-.39m8.68,.3v-6.77h-.95v2.83h-3.04v-2.83h-.95v6.77h.95v-3.11h3.04v3.11h.95Zm8.33,0v-.79h-2.81v-2.34h2.41v-.78h-2.41v-2.07h2.77v-.79h-3.72v6.77h3.76Z"/>
      <path d="M232.9,26.4c.69,0,1.36,.18,2.02,.53,.66,.35,1.17,.86,1.53,1.52,.37,.66,.55,1.35,.55,2.06s-.18,1.39-.54,2.04c-.36,.65-.87,1.16-1.52,1.52-.65,.36-1.34,.54-2.05,.54s-1.39-.18-2.05-.54c-.65-.36-1.16-.87-1.52-1.52-.36-.65-.55-1.33-.55-2.04s.18-1.4,.55-2.06c.37-.66,.88-1.17,1.54-1.52,.66-.35,1.33-.53,2.02-.53m0,.68c-.58,0-1.14,.15-1.69,.45-.55,.3-.97,.72-1.28,1.27-.31,.55-.46,1.12-.46,1.72s.15,1.16,.45,1.7c.3,.54,.73,.97,1.27,1.27,.55,.3,1.11,.46,1.71,.46s1.16-.15,1.71-.46c.54-.3,.97-.73,1.27-1.27,.3-.54,.45-1.11,.45-1.7s-.16-1.17-.46-1.72c-.31-.55-.73-.97-1.28-1.27-.55-.3-1.11-.45-1.68-.45m-1.81,5.7v-4.42h1.52c.52,0,.9,.04,1.13,.12,.23,.08,.42,.22,.56,.43,.14,.2,.21,.42,.21,.65,0,.32-.12,.61-.35,.84-.23,.24-.54,.37-.92,.4,.15,.07,.28,.14,.38,.23,.18,.17,.4,.46,.65,.88l.54,.87h-.87l-.4-.7c-.31-.55-.56-.89-.75-1.03-.13-.1-.32-.15-.57-.15h-.42v1.88h-.71Zm.71-2.49h.87c.41,0,.7-.06,.85-.18,.15-.12,.23-.29,.23-.49,0-.13-.04-.25-.11-.35-.07-.1-.17-.18-.3-.23-.13-.05-.37-.08-.72-.08h-.81v1.33Z"/>
      <rect class="cls-1" y="0" width="251.49" height="78.44"/>
    </g>
  </g>
</svg>